

<svg width="168" height="50" viewBox="0 0 168 50" fill="none" xmlns="http://www.w3.org/2000/svg">
<path id="Vector" d="M114.603 15.3451L123.187 20.5985C124.508 19.9867 125.792 19.4553 127.039 19.0041C128.285 18.553 129.651 18.1748 131.136 17.8695L135.657 8.703L148.426 11.4038L147.928 21.5601C149.121 22.3683 150.238 23.2585 151.279 24.2309C152.319 25.2034 153.282 26.2579 154.169 27.3946L164.268 26.2145L167.822 38.7731L158.98 43.9004C158.775 45.4024 158.49 46.7904 158.124 48.0644C157.757 49.3384 157.313 50.6552 156.792 52.015L162.611 60.2258L153.395 70.0836L144.811 64.8302C143.49 65.442 142.206 65.9734 140.959 66.4246C139.713 66.8757 138.347 67.2539 136.862 67.5592L132.341 76.7257L119.572 74.0249L120.07 63.8686C118.877 63.0605 117.76 62.1702 116.719 61.1978C115.679 60.2254 114.716 59.1708 113.829 58.0341L103.73 59.2142L100.176 46.6556L109.018 41.5283C109.223 40.0263 109.508 38.6383 109.874 37.3643C110.241 36.0903 110.685 34.7735 111.206 33.4137L105.387 25.2029L114.603 15.3451ZM124.397 33.7382C121.863 36.4491 120.634 39.6487 120.709 43.337C120.785 47.0254 122.143 50.1037 124.783 52.5722C127.424 55.0406 130.586 56.1885 134.271 56.0158C137.957 55.8432 141.066 54.4014 143.601 51.6905C146.135 48.9796 147.364 45.78 147.289 42.0917C147.213 38.4034 145.855 35.325 143.215 32.8565C140.574 30.3881 137.412 29.2402 133.727 29.4129C130.041 29.5855 126.932 31.0273 124.397 33.7382ZM20.5542 10.09L32.7093 17.2969C34.495 16.3492 36.2846 15.5977 38.0783 15.0423C39.872 14.487 41.7465 14.0457 43.7018 13.7184L49.797 0.943368L67.7699 4.81427L67.1184 18.9838C68.7122 20.166 70.2292 21.4302 71.6694 22.7767C73.1097 24.1231 74.4731 25.5516 75.7597 27.0624L89.8534 25.4594L94.9242 43.1313L82.588 50.0718C82.3929 52.0447 82.0787 53.9447 81.6452 55.7716C81.2118 57.5986 80.5823 59.4347 79.7568 61.2801L87.7649 72.923L74.8628 86.724L62.7077 79.517C60.922 80.4648 59.1324 81.2163 57.3387 81.7716C55.545 82.327 53.6705 82.7683 51.7152 83.0955L45.62 95.8706L27.6471 91.9997L28.2986 77.8301C26.7048 76.648 25.1878 75.3837 23.7475 74.0373C22.3073 72.6909 20.9439 71.2623 19.6572 69.7516L5.56357 71.3546L0.492773 53.6827L12.829 46.7421C13.024 44.7692 13.3383 42.8693 13.7718 41.0423C14.2052 39.2154 14.8347 37.3792 15.6602 35.5339L7.65213 23.8909L20.5542 10.09ZM33.3062 34.9428C29.4663 39.0502 27.6026 43.8505 27.7151 49.3438C27.8277 54.837 29.8842 59.4537 33.8849 63.1937C37.8855 66.9338 42.63 68.6752 48.1184 68.4181C53.6067 68.1609 58.2709 65.9786 62.1108 61.8712C65.9507 57.7638 67.8144 52.9635 67.7019 47.4702C67.5893 41.977 65.5328 37.3603 61.5321 33.6203C57.5315 29.8802 52.787 28.1387 47.2986 28.3959C41.8102 28.6531 37.1461 30.8353 33.3062 34.9428Z" fill="#E1E6F0"/>
</svg>
